<svg width="22" height="28" viewBox="0 0 22 28" fill="none" xmlns="http://www.w3.org/2000/svg">
<path fill-rule="evenodd" clip-rule="evenodd" d="M9.74746 26.3832C7.06357 24.1294 1 18.2511 1 11.1427C1 8.45259 2.05357 5.87316 3.92895 3.97098C5.80432 2.0688 8.34799 1 11.0002 1C13.6524 1 16.1957 2.06864 18.0711 3.97082C19.9465 5.873 21 8.45324 21 11.1433C21 18.2517 14.9367 24.1297 12.2529 26.3834C11.8673 26.7072 11.6743 26.8688 11.3872 26.9517C11.1641 27.0161 10.8356 27.0161 10.6125 26.9517C10.3259 26.8689 10.1316 26.7057 9.74746 26.3832ZM11 15C8.23858 15 6 12.7614 6 10C6 7.23858 8.23858 5 11 5C13.7614 5 16 7.23858 16 10C16 12.7614 13.7614 15 11 15Z" fill="#F1F4F9"/>
<path d="M9.74746 26.3832L9.10439 27.149L9.1044 27.149L9.74746 26.3832ZM3.92895 3.97098L3.21684 3.26891L3.92895 3.97098ZM18.0711 3.97082L18.7832 3.26875V3.26875L18.0711 3.97082ZM12.2529 26.3834L11.6098 25.6176L12.2529 26.3834ZM11.3872 26.9517L11.6646 27.9124L11.6646 27.9124L11.3872 26.9517ZM10.6125 26.9517L10.8899 25.9909L10.6125 26.9517ZM0 11.1427C0 14.98 1.63343 18.4269 3.54855 21.1576C5.46809 23.8947 7.72547 25.9911 9.10439 27.149L10.3905 25.6174C9.08556 24.5216 6.96921 22.5519 5.186 20.0092C3.39835 17.4603 2 14.4137 2 11.1427H0ZM3.21684 3.26891C1.15557 5.35965 0 8.19186 0 11.1427H2C2 8.71331 2.95158 6.38668 4.64106 4.67305L3.21684 3.26891ZM11.0002 0C8.07813 0 5.2786 1.17767 3.21684 3.26891L4.64106 4.67305C6.33004 2.95992 8.61786 2 11.0002 2V0ZM18.7832 3.26875C16.7214 1.1775 13.9222 0 11.0002 0V2C13.3825 2 15.67 2.95977 17.359 4.67289L18.7832 3.26875ZM22 11.1433C22 8.19261 20.8446 5.35956 18.7832 3.26875L17.359 4.67289C19.0484 6.38645 20 8.71386 20 11.1433H22ZM12.8959 27.1492C14.2748 25.9913 16.5321 23.895 18.4516 21.1581C20.3667 18.4274 22 14.9807 22 11.1433H20C20 14.4144 18.6017 17.4608 16.8142 20.0097C15.031 22.5522 12.9148 24.5218 11.6098 25.6176L12.8959 27.1492ZM11.6646 27.9124C12.1946 27.7594 12.5538 27.4365 12.8959 27.1492L11.6098 25.6176C11.4043 25.7902 11.3001 25.8762 11.2155 25.9346C11.1525 25.978 11.1294 25.9853 11.1098 25.9909L11.6646 27.9124ZM10.3351 27.9124C10.7395 28.0292 11.2602 28.0292 11.6646 27.9124L11.1098 25.9909C11.1144 25.9896 11.1054 25.9924 11.0816 25.9954C11.059 25.9981 11.0308 26 10.9998 26C10.9689 26 10.9407 25.9981 10.9181 25.9954C10.8943 25.9924 10.8853 25.9896 10.8899 25.9909L10.3351 27.9124ZM9.1044 27.149C9.44369 27.4339 9.80516 27.7594 10.3351 27.9124L10.8899 25.9909C10.8717 25.9857 10.8487 25.9786 10.7849 25.9345C10.6998 25.8758 10.5955 25.7895 10.3905 25.6174L9.1044 27.149ZM5 10C5 13.3137 7.68629 16 11 16V14C8.79086 14 7 12.2091 7 10H5ZM11 4C7.68629 4 5 6.68629 5 10H7C7 7.79086 8.79086 6 11 6V4ZM17 10C17 6.68629 14.3137 4 11 4V6C13.2091 6 15 7.79086 15 10H17ZM11 16C14.3137 16 17 13.3137 17 10H15C15 12.2091 13.2091 14 11 14V16Z" fill="#F1F4F9"/>
</svg>
