<svg width="72" height="48" viewBox="0 0 72 48" fill="none" xmlns="http://www.w3.org/2000/svg">
<g clip-path="url(#clip0_237_378)">
<path d="M0 6C0 2.68629 2.68629 0 6 0H66C69.3137 0 72 2.68629 72 6V42C72 45.3137 69.3137 48 66 48H6C2.68629 48 0 45.3137 0 42V6Z" fill="white"/>
<path d="M34.3758 25.6124V32.5481H32.1602V15.4201H38.0363C38.7378 15.4055 39.4351 15.5291 40.0882 15.7836C40.7413 16.0381 41.3372 16.4185 41.8414 16.9029C42.3508 17.3579 42.7561 17.9159 43.0303 18.5393C43.3045 19.1628 43.441 19.8374 43.4309 20.5176C43.4455 21.2015 43.311 21.8805 43.0366 22.5079C42.7623 23.1354 42.3546 23.6965 41.8414 24.1529C40.8139 25.1259 39.5455 25.612 38.0363 25.6111H34.3758V25.6124ZM34.3758 17.5288V23.5078H38.0914C38.4987 23.5198 38.9041 23.4472 39.2816 23.2948C39.6591 23.1423 40.0004 22.9132 40.2836 22.6223C40.5654 22.3502 40.7894 22.0248 40.9423 21.6653C41.0952 21.3058 41.174 20.9195 41.174 20.5293C41.174 20.139 41.0952 19.7527 40.9423 19.3932C40.7894 19.0337 40.5654 18.7083 40.2836 18.4363C40.0039 18.1392 39.6638 17.9045 39.2859 17.7478C38.9079 17.5911 38.5008 17.516 38.0914 17.5274H34.3758V17.5288Z" fill="#5F6368"/>
<path d="M48.5361 20.4463C50.1738 20.4463 51.4664 20.8809 52.4142 21.7501C53.3619 22.6192 53.8353 23.8109 53.8343 25.3252V32.5478H51.7151V30.9215H51.6187C50.7013 32.2608 49.4811 32.9305 47.9582 32.9305C46.6582 32.9305 45.5705 32.5478 44.6953 31.7825C44.2753 31.4312 43.9395 30.9913 43.7123 30.4949C43.4852 29.9984 43.3725 29.4578 43.3824 28.9126C43.3824 27.6999 43.8439 26.7355 44.7669 26.0194C45.6898 25.3033 46.9219 24.9443 48.4632 24.9425C49.7788 24.9425 50.8623 25.1817 51.7137 25.66V25.1571C51.7162 24.7854 51.6354 24.4178 51.4771 24.0809C51.3188 23.7441 51.087 23.4465 50.7985 23.2096C50.2126 22.6847 49.4491 22.3982 48.66 22.4074C47.4224 22.4074 46.443 22.9258 45.7219 23.9626L43.7705 22.7422C44.8439 21.2116 46.4325 20.4463 48.5361 20.4463ZM45.6696 28.9604C45.6681 29.2404 45.734 29.5168 45.8619 29.7664C45.9897 30.016 46.1757 30.2316 46.4045 30.3954C46.8945 30.7782 47.5027 30.9809 48.1261 30.9694C49.061 30.9678 49.9572 30.5982 50.6183 29.9417C51.3522 29.2556 51.7192 28.4507 51.7192 27.5268C51.0284 26.9802 50.0651 26.7068 48.8293 26.7068C47.9293 26.7068 47.1788 26.9223 46.5779 27.3533C45.971 27.7906 45.6696 28.3222 45.6696 28.9604Z" fill="#5F6368"/>
<path d="M66 20.8291L58.6018 37.7138H56.3146L59.06 31.8059L54.1953 20.8291H56.6036L60.1197 29.2476H60.1678L63.5876 20.8291H66Z" fill="#5F6368"/>
<path d="M25.4229 24.117C25.4238 23.4464 25.3667 22.7771 25.2523 22.1162H15.9082V25.9059H21.2601C21.1506 26.5111 20.9188 27.0881 20.5787 27.602C20.2386 28.1159 19.7972 28.5561 19.2812 28.8961V31.356H22.4752C24.3454 29.6436 25.4229 27.1113 25.4229 24.117Z" fill="#4285F4"/>
<path d="M15.9075 33.7329C18.5814 33.7329 20.8328 32.861 22.4745 31.3577L19.2805 28.8978C18.3915 29.4963 17.2465 29.838 15.9075 29.838C13.3231 29.838 11.1295 28.1078 10.3451 25.7764H7.05469V28.3115C7.87937 29.9411 9.14394 31.3111 10.7072 32.2685C12.2705 33.2258 14.0709 33.7328 15.9075 33.7329Z" fill="#34A853"/>
<path d="M10.3455 25.7762C9.93076 24.5544 9.93076 23.2314 10.3455 22.0097V19.4746H7.05506C6.36131 20.8456 6 22.3586 6 23.8929C6 25.4273 6.36131 26.9403 7.05506 28.3113L10.3455 25.7762Z" fill="#FBBC04"/>
<path d="M15.9075 17.9483C17.3205 17.9254 18.6859 18.4555 19.7084 19.4242L22.5364 16.6158C20.7432 14.9432 18.3675 14.0248 15.9075 14.0534C14.0709 14.0535 12.2705 14.5605 10.7072 15.5178C9.14394 16.4751 7.87937 17.8451 7.05469 19.4748L10.3451 22.0099C11.1295 19.6784 13.3231 17.9483 15.9075 17.9483Z" fill="#EA4335"/>
</g>
<defs>
<clipPath id="clip0_237_378">
<rect width="72" height="48" fill="white"/>
</clipPath>
</defs>
</svg>
