<svg width="72" height="48" viewBox="0 0 72 48" fill="none" xmlns="http://www.w3.org/2000/svg">
<g clip-path="url(#clip0_237_379)">
<path d="M0 6C0 2.68629 2.68629 0 6 0H66C69.3137 0 72 2.68629 72 6V42C72 45.3137 69.3137 48 66 48H6C2.68629 48 0 45.3137 0 42V6Z" fill="white"/>
<path d="M11.3494 27.2174C11.0602 27.0005 10.6988 26.8559 10.3373 26.7836C9.9759 26.6391 9.61446 26.6391 9.25301 26.6391C9.03614 26.6391 8.81928 26.6391 8.60241 26.7114C8.38554 26.7837 8.24096 26.8559 8.09639 26.9282C7.95181 27.0005 7.80723 27.1451 7.73494 27.2897C7.66265 27.4343 7.59036 27.5788 7.59036 27.7234C7.59036 27.868 7.59036 28.0126 7.66265 28.0849C7.73494 28.1571 7.80723 28.3017 7.95181 28.374C8.09639 28.4463 8.24096 28.5186 8.45783 28.5909C8.6747 28.6632 8.89157 28.6632 9.10843 28.7355L9.61446 28.8077C9.90361 28.88 10.1928 28.88 10.4819 29.0246C10.7711 29.0969 10.988 29.2415 11.2048 29.3861C11.4217 29.5306 11.6386 29.7475 11.7108 29.9644C11.8554 30.1812 11.9277 30.4704 11.9277 30.8318C11.9277 31.1933 11.8554 31.5547 11.7108 31.8439C11.5663 32.133 11.3494 32.3499 11.0602 32.5668C10.7711 32.7836 10.4819 32.9282 10.1205 33.0005C9.75904 33.0728 9.39759 33.1451 8.96386 33.1451C8.74699 33.1451 8.45783 33.1451 8.16867 33.0728C7.87952 33.0005 7.66265 33.0005 7.37349 32.8559C7.08434 32.7837 6.86747 32.6391 6.6506 32.5668C6.43373 32.4222 6.21687 32.2776 6 32.133L6.6506 31.1933C6.79518 31.3379 6.93976 31.4102 7.08434 31.4824C7.22892 31.5547 7.44578 31.6993 7.66265 31.7716C7.87952 31.8439 8.09639 31.9162 8.31325 31.9162C8.53012 31.9885 8.74699 31.9885 8.96386 31.9885C9.18072 31.9885 9.39759 31.9885 9.61446 31.9162C9.83133 31.8439 9.9759 31.7716 10.1205 31.6993C10.2651 31.627 10.4096 31.4824 10.4819 31.3379C10.5542 31.1933 10.6265 31.0487 10.6265 30.9041C10.6265 30.615 10.4819 30.3981 10.1928 30.2535C9.90361 30.109 9.46988 29.9644 8.96386 29.8921L8.60241 29.8198C8.31325 29.7475 8.09639 29.7475 7.80723 29.6029C7.51807 29.5306 7.3012 29.3861 7.08434 29.2415C6.86747 29.0969 6.72289 28.88 6.57831 28.6632C6.43374 28.4463 6.36145 28.1571 6.36145 27.7957C6.36145 27.4343 6.43374 27.0728 6.57831 26.8559C6.72289 26.5668 6.93976 26.3499 7.22892 26.133C7.51807 25.9162 7.80723 25.7716 8.16867 25.6993C8.53012 25.627 8.89157 25.5547 9.25301 25.5547C9.75904 25.5547 10.2651 25.627 10.6988 25.7716C11.1325 25.9162 11.494 26.133 11.9277 26.3499L11.3494 27.2174ZM15.3976 27.7957C15.759 27.7957 16.0482 27.868 16.3373 28.0126C16.6265 28.1571 16.8434 28.3017 17.0602 28.5186C17.2771 28.7355 17.4217 29.0246 17.5663 29.3138C17.7108 29.6029 17.7108 29.9644 17.7108 30.3981C17.7108 30.4704 17.7108 30.5427 17.7108 30.615C17.7108 30.6873 17.7108 30.7596 17.7108 30.8318H14.0241C14.0241 31.0487 14.0964 31.2656 14.241 31.4102C14.3133 31.5547 14.4578 31.6993 14.6024 31.7716C14.747 31.8439 14.8916 31.9162 15.0361 31.9885C15.1807 32.0608 15.3976 32.0608 15.5422 32.0608C15.759 32.0608 16.0482 31.9885 16.2651 31.9162C16.4819 31.8439 16.7711 31.6993 16.988 31.5547L17.5663 32.3499C17.2771 32.6391 16.9157 32.7836 16.6265 32.9282C16.2651 33.0005 15.9036 33.0728 15.5422 33.0728C15.1807 33.0728 14.8193 33.0005 14.5301 32.8559C14.241 32.7114 13.9518 32.5668 13.7349 32.3499C13.5181 32.133 13.3012 31.8439 13.2289 31.5547C13.0843 31.2656 13.012 30.9041 13.012 30.4704C13.012 30.109 13.0843 29.7475 13.2289 29.3861C13.3735 29.0969 13.5181 28.8077 13.7349 28.5186C13.9518 28.3017 14.241 28.0849 14.5301 28.0126C14.6747 27.868 14.9639 27.7957 15.3976 27.7957ZM15.3253 28.8077C15.1084 28.8077 14.9639 28.8077 14.8193 28.88C14.6747 28.9523 14.5301 29.0246 14.4578 29.1692C14.3133 29.3138 14.241 29.3861 14.1687 29.5306C14.0964 29.6752 14.0241 29.8198 14.0241 30.0367H16.6265C16.5542 29.6752 16.4096 29.3138 16.1928 29.0969C15.9759 28.88 15.6867 28.8077 15.3253 28.8077ZM21.1084 27.7957C21.4699 27.7957 21.8313 27.868 22.1205 28.0126C22.4096 28.1571 22.6988 28.374 22.9157 28.5909L22.1928 29.3138C22.0482 29.1692 21.8313 29.0246 21.6145 28.9523C21.3976 28.88 21.1807 28.8077 20.9639 28.8077C20.747 28.8077 20.5301 28.88 20.3855 28.9523C20.1687 29.0246 20.0241 29.1692 19.9518 29.3138C19.8072 29.4583 19.7349 29.6029 19.6627 29.8198C19.5904 30.0367 19.5181 30.2535 19.5181 30.4704C19.5181 30.6873 19.5904 30.9041 19.6627 31.121C19.7349 31.3379 19.8072 31.4824 19.9518 31.627C20.0964 31.7716 20.241 31.8439 20.3855 31.9885C20.5301 32.0608 20.747 32.133 20.9639 32.133C21.1807 32.133 21.3976 32.0608 21.6145 31.9885C21.8313 31.9162 21.9759 31.7716 22.1928 31.627L22.8434 32.3499C22.6265 32.6391 22.3374 32.7836 22.0482 32.9282C21.759 33.0728 21.3976 33.1451 21.0361 33.1451C20.6747 33.1451 20.3133 33.0728 19.9518 32.9282C19.6627 32.7836 19.3735 32.6391 19.1566 32.3499C18.9398 32.133 18.7229 31.8439 18.6506 31.4824C18.506 31.1933 18.4337 30.8318 18.4337 30.4704C18.4337 30.109 18.506 29.7475 18.6506 29.4583C18.7952 29.1692 18.9398 28.88 19.1566 28.5909C19.3735 28.374 19.6627 28.1571 19.9518 28.0126C20.3855 27.868 20.747 27.7957 21.1084 27.7957ZM28.6265 30.8318C28.6265 31.1933 28.5542 31.5547 28.4096 31.8439C28.2651 32.133 28.1205 32.3499 27.9036 32.5668C27.6867 32.7836 27.4699 32.8559 27.1807 33.0005C26.8916 33.0728 26.6024 33.1451 26.3133 33.1451C26.0241 33.1451 25.7349 33.0728 25.4458 33.0005C25.1566 32.9282 24.9398 32.7836 24.7229 32.5668C24.506 32.4222 24.3614 32.133 24.2169 31.8439C24.0723 31.5547 24 31.1933 24 30.8318V27.9403H25.0843V30.6873C25.0843 30.9041 25.0843 31.121 25.1566 31.2656C25.2289 31.4102 25.3012 31.5547 25.4458 31.6993C25.5904 31.7716 25.6627 31.8439 25.8072 31.9162C25.9518 31.9885 26.0964 31.9885 26.3133 31.9885C26.4578 31.9885 26.6747 31.9885 26.8193 31.9162C26.9639 31.8439 27.1084 31.7716 27.1807 31.6993C27.3253 31.627 27.3976 31.4824 27.4699 31.2656C27.5422 31.121 27.5422 30.9041 27.5422 30.6873V27.9403H28.6265V30.8318ZM32.6024 27.7957C32.747 27.7957 32.8916 27.7957 33.0361 27.7957C33.1807 27.7957 33.3253 27.868 33.3976 27.868L33.1084 28.9523C32.9639 28.88 32.8916 28.88 32.6747 28.8077C32.5301 28.8077 32.3855 28.7355 32.241 28.7355C32.0964 28.7355 31.8795 28.7355 31.7349 28.8077C31.5904 28.88 31.4458 28.9523 31.3735 29.0969C31.3012 29.2415 31.1566 29.3861 31.1566 29.5306C31.0843 29.6752 31.0843 29.8921 31.0843 30.109V32.8559H30V27.868H31.0843V28.4463C31.2289 28.2294 31.4458 28.0126 31.7349 27.9403C31.9518 27.868 32.241 27.7957 32.6024 27.7957ZM36.2169 27.7957C36.5783 27.7957 36.8675 27.868 37.1566 28.0126C37.4458 28.1571 37.6626 28.3017 37.8795 28.5186C38.0964 28.7355 38.241 29.0246 38.3855 29.3138C38.5301 29.6029 38.5301 29.9644 38.5301 30.3981C38.5301 30.4704 38.5301 30.5427 38.5301 30.615C38.5301 30.6873 38.5301 30.7596 38.5301 30.8318H34.9157C34.9157 31.0487 34.988 31.2656 35.1325 31.4102C35.2048 31.5547 35.3494 31.6993 35.494 31.7716C35.6386 31.8439 35.7831 31.9162 35.9277 31.9885C36.0723 32.0608 36.2892 32.0608 36.4337 32.0608C36.6506 32.0608 36.9398 31.9885 37.1566 31.9162C37.3735 31.8439 37.6626 31.6993 37.8795 31.5547L38.3855 32.3499C38.0964 32.6391 37.7349 32.7836 37.4458 32.9282C37.0843 33.0005 36.7229 33.0728 36.3614 33.0728C36 33.0728 35.6386 33.0005 35.3494 32.8559C35.0602 32.7114 34.7711 32.5668 34.5542 32.3499C34.3373 32.133 34.1205 31.8439 34.0482 31.5547C33.9036 31.2656 33.8313 30.9041 33.8313 30.4704C33.8313 30.109 33.9036 29.7475 34.0482 29.3861C34.1928 29.0969 34.3373 28.8077 34.5542 28.5186C34.7711 28.3017 35.0602 28.0849 35.3494 28.0126C35.494 27.868 35.8554 27.7957 36.2169 27.7957ZM36.2169 28.8077C36 28.8077 35.8554 28.8077 35.7108 28.88C35.5663 28.9523 35.4217 29.0246 35.3494 29.1692C35.2048 29.3138 35.1325 29.3861 35.0602 29.5306C34.988 29.6752 34.9157 29.8198 34.9157 30.0367H37.5181C37.4458 29.6752 37.3012 29.3138 37.0843 29.0969C36.8675 28.88 36.5783 28.8077 36.2169 28.8077ZM43.3012 25.4824C43.5904 25.4824 43.9518 25.4824 44.241 25.5547C44.5301 25.627 44.8193 25.6993 45.1084 25.8439C45.3976 25.9885 45.6145 26.133 45.8313 26.3499C46.0482 26.5668 46.1928 26.7837 46.3374 27.0005L45.3253 27.6511C45.1084 27.2897 44.8193 27.0728 44.4578 26.8559C44.0964 26.6391 43.7349 26.5668 43.3012 26.5668C42.9398 26.5668 42.5783 26.6391 42.2892 26.7836C42 26.9282 41.7108 27.0728 41.494 27.362C41.2771 27.5788 41.0602 27.868 40.988 28.2294C40.8434 28.5909 40.7711 28.88 40.7711 29.3138C40.7711 29.6752 40.8434 30.0367 40.988 30.3981C41.1325 30.7596 41.2771 30.9764 41.494 31.2656C41.7108 31.4824 42 31.6993 42.2892 31.7716C42.5783 31.9162 42.9398 31.9885 43.3012 31.9885C43.7349 31.9885 44.0964 31.9162 44.4578 31.6993C44.8193 31.4824 45.1084 31.2656 45.3253 30.9041L46.2651 31.627C46.1205 31.8439 45.9036 32.0608 45.6867 32.2776C45.4699 32.4945 45.253 32.6391 44.9639 32.7114C44.6747 32.8559 44.4578 32.9282 44.1687 33.0005C43.8795 33.0728 43.5904 33.0728 43.2289 33.0728C42.6506 33.0728 42.1446 33.0005 41.7108 32.7836C41.2771 32.5668 40.8434 32.3499 40.4819 31.9885C40.1205 31.627 39.9036 31.2656 39.6867 30.7596C39.4699 30.3258 39.3976 29.8198 39.3976 29.2415C39.3976 28.6632 39.4699 28.1571 39.6867 27.7234C39.9036 27.2897 40.1205 26.8559 40.4819 26.4945C40.8434 26.133 41.2048 25.9162 41.7108 25.6993C42.2169 25.627 42.7229 25.4824 43.3012 25.4824ZM49.7349 27.7957C50.0964 27.7957 50.4578 27.868 50.8193 28.0126C51.1807 28.1571 51.3976 28.3017 51.6867 28.5909C51.9036 28.8077 52.1205 29.0969 52.2651 29.4583C52.4096 29.7475 52.4819 30.109 52.4819 30.4704C52.4819 30.8318 52.4096 31.1933 52.2651 31.4824C52.1205 31.7716 51.9759 32.0608 51.6867 32.3499C51.4699 32.5668 51.1807 32.7836 50.8193 32.9282C50.4578 33.0728 50.1687 33.1451 49.7349 33.1451C49.3735 33.1451 49.012 33.0728 48.6506 32.9282C48.2892 32.7836 48.0723 32.6391 47.7831 32.3499C47.5663 32.133 47.3494 31.8439 47.2048 31.4824C47.0602 31.1933 46.9879 30.8318 46.9879 30.4704C46.9879 30.109 47.0602 29.7475 47.2048 29.4583C47.3494 29.1692 47.494 28.88 47.7831 28.5909C48 28.374 48.2892 28.1571 48.6506 28.0126C49.012 27.868 49.3735 27.7957 49.7349 27.7957ZM49.7349 28.8077C49.5181 28.8077 49.3012 28.88 49.0843 28.9523C48.8675 29.0246 48.7229 29.1692 48.5783 29.3138C48.4337 29.4583 48.3614 29.6029 48.2169 29.8198C48.1446 30.0367 48.0723 30.2535 48.0723 30.4704C48.0723 30.6873 48.1446 30.9041 48.2169 31.121C48.2892 31.3379 48.4337 31.4824 48.5783 31.627C48.7229 31.7716 48.8675 31.8439 49.0843 31.9885C49.3012 32.0608 49.5181 32.133 49.7349 32.133C49.9518 32.133 50.1687 32.0608 50.3855 31.9885C50.6024 31.9162 50.747 31.7716 50.8916 31.627C51.0361 31.4824 51.1084 31.3379 51.253 31.121C51.3253 30.9041 51.3976 30.6873 51.3976 30.4704C51.3976 30.2535 51.3253 30.0367 51.253 29.8198C51.1807 29.6029 51.0361 29.4583 50.8916 29.3138C50.747 29.1692 50.6024 29.0969 50.3855 28.9523C50.1687 28.88 49.9518 28.8077 49.7349 28.8077ZM55.7349 27.7957C56.0964 27.7957 56.3855 27.868 56.6747 28.0126C56.9639 28.1571 57.1807 28.3017 57.3253 28.5186V25.4102H58.4096V32.9282H57.3253V32.3499C57.1807 32.5668 56.9639 32.7837 56.6747 32.8559C56.3855 33.0005 56.0964 33.0728 55.7349 33.0728C55.3735 33.0728 55.0843 33.0005 54.7229 32.8559C54.4337 32.7114 54.1446 32.5668 53.9277 32.2776C53.7108 32.0608 53.494 31.7716 53.4217 31.4102C53.2771 31.121 53.2048 30.7596 53.2048 30.3258C53.2048 29.9644 53.2771 29.6029 53.4217 29.2415C53.5663 28.9523 53.7108 28.6632 53.9277 28.374C54.1446 28.1571 54.4337 27.9403 54.7229 27.7957C55.0121 27.868 55.3735 27.7957 55.7349 27.7957ZM55.8072 28.8077C55.5904 28.8077 55.3735 28.88 55.1566 28.9523C54.9398 29.0246 54.7952 29.1692 54.6506 29.3138C54.506 29.4583 54.4337 29.6029 54.3614 29.8198C54.2892 30.0367 54.2892 30.2535 54.2892 30.4704C54.2892 30.6873 54.2892 30.9041 54.3614 31.121C54.4337 31.3379 54.506 31.4824 54.6506 31.627C54.7952 31.7716 54.9398 31.9162 55.1566 31.9885C55.3735 32.0608 55.5181 32.133 55.8072 32.133C56.0241 32.133 56.241 32.0608 56.4578 31.9885C56.6747 31.9162 56.8193 31.7716 56.9639 31.627C57.1084 31.4824 57.1807 31.3379 57.253 31.121C57.3253 30.9041 57.3976 30.6873 57.3976 30.4704C57.3976 30.2535 57.3253 30.0367 57.253 29.8198C57.1807 29.6029 57.1084 29.4583 56.9639 29.3138C56.8193 29.1692 56.6747 29.0246 56.4578 28.9523C56.241 28.88 56.0964 28.8077 55.8072 28.8077ZM62.0241 27.7957C62.3855 27.7957 62.6747 27.868 62.9639 28.0126C63.253 28.1571 63.4699 28.3017 63.6867 28.5186C63.9036 28.7355 64.0482 29.0246 64.1928 29.3138C64.3373 29.6029 64.3373 29.9644 64.3373 30.3981C64.3373 30.4704 64.3373 30.5427 64.3373 30.615C64.3373 30.6873 64.3373 30.7596 64.3373 30.8318H60.6506C60.6506 31.0487 60.7229 31.2656 60.8675 31.4102C60.9398 31.5547 61.0843 31.6993 61.2289 31.7716C61.3735 31.8439 61.5181 31.9162 61.6627 31.9885C61.8072 32.0608 62.0241 32.0608 62.1687 32.0608C62.3855 32.0608 62.6747 31.9885 62.8916 31.9162C63.1084 31.8439 63.3976 31.6993 63.6145 31.5547L64.1205 32.3499C63.8313 32.6391 63.4699 32.7836 63.1807 32.9282C62.8193 33.0005 62.4578 33.0728 62.0964 33.0728C61.7349 33.0728 61.3735 33.0005 61.0843 32.8559C60.7952 32.7114 60.506 32.5668 60.2892 32.3499C60.0723 32.133 59.8554 31.8439 59.7831 31.5547C59.6386 31.2656 59.5663 30.9041 59.5663 30.4704C59.5663 30.109 59.6386 29.7475 59.7831 29.3861C59.9277 29.0969 60.0723 28.8077 60.2892 28.5186C60.506 28.3017 60.7952 28.0849 61.0843 28.0126C61.3012 27.868 61.6627 27.7957 62.0241 27.7957ZM64.8434 32.9282V32.7114H64.9157V32.6391H64.6265V32.7114H64.6988L64.8434 32.9282ZM65.3494 32.9282V32.6391H65.2771L65.2048 32.8559L65.1325 32.6391H65.0602V32.9282H65.1325V32.7114L65.2048 32.9282H65.2771L65.3494 32.7114V32.9282ZM61.9518 28.8077C61.7349 28.8077 61.5904 28.8077 61.4458 28.88C61.3012 28.9523 61.1566 29.0246 61.0843 29.1692C60.9398 29.3138 60.8675 29.3861 60.7952 29.5306C60.7229 29.6752 60.6506 29.8198 60.6506 30.0367H63.253C63.1807 29.6752 63.0361 29.3138 62.8193 29.0969C62.6024 28.88 62.3133 28.8077 61.9518 28.8077Z" fill="#F59E1F"/>
<path d="M14.9636 22.6627H13.7347V16.4458L11.566 21.8675H10.2648L8.02384 16.4458V22.5904H6.79492V15.0723H8.67444L10.8431 20.494L13.0118 15.0723H14.8913V22.6627H14.9636ZM21.3973 22.6627H20.2407V22.0121C20.0961 22.229 19.807 22.4458 19.5901 22.5904C19.3009 22.735 19.0118 22.8073 18.6503 22.8073C18.2889 22.8073 17.9275 22.735 17.6383 22.5904C17.3491 22.4458 17.06 22.3013 16.8431 22.0121C16.6262 21.7952 16.4094 21.5061 16.2648 21.1446C16.1202 20.7832 16.0479 20.4217 16.0479 20.0603C16.0479 19.6988 16.1202 19.2651 16.2648 18.976C16.4094 18.6145 16.554 18.3253 16.8431 18.1085C17.06 17.8916 17.3491 17.6747 17.6383 17.5302C17.9275 17.3856 18.2889 17.3133 18.6503 17.3133C19.0118 17.3133 19.3732 17.3856 19.5901 17.5302C19.8793 17.6747 20.0961 17.8193 20.2407 18.1085V17.4579H21.3973V22.6627ZM18.7949 18.3976C18.5781 18.3976 18.3612 18.4699 18.1443 18.5422C17.9275 18.6145 17.7829 18.7591 17.6383 18.9037C17.4937 19.0482 17.4214 19.1928 17.3491 19.4097C17.2768 19.6266 17.2768 19.8434 17.2768 20.0603C17.2768 20.2772 17.2768 20.494 17.3491 20.7109C17.4214 20.9278 17.4937 21.0723 17.6383 21.2169C17.7829 21.3615 17.9275 21.5061 18.1443 21.5784C18.3612 21.6506 18.5781 21.7229 18.7949 21.7229C19.0118 21.7229 19.2287 21.6506 19.4455 21.5784C19.6624 21.5061 19.807 21.3615 19.9515 21.2169C20.0961 21.0723 20.1684 20.9278 20.2407 20.7109C20.313 20.494 20.3853 20.2772 20.3853 20.0603C20.3853 19.8434 20.313 19.6266 20.2407 19.4097C20.1684 19.1928 20.0238 19.0482 19.9515 18.9037C19.807 18.7591 19.6624 18.6145 19.4455 18.5422C19.2287 18.3976 19.0118 18.3976 18.7949 18.3976ZM26.6021 18.7591C26.5299 18.6868 26.4576 18.6868 26.313 18.6145C26.1684 18.5422 26.0961 18.5422 25.9515 18.4699C25.807 18.3976 25.6624 18.3976 25.5178 18.3976C25.3732 18.3976 25.2287 18.3253 25.0118 18.3253C24.7226 18.3253 24.4335 18.3976 24.2889 18.4699C24.1443 18.6145 23.9997 18.7591 23.9997 18.9037C23.9997 18.9759 23.9997 19.0482 24.072 19.1205C24.1443 19.1928 24.1443 19.2651 24.2889 19.2651C24.3612 19.3374 24.4335 19.3374 24.5781 19.3374C24.6503 19.3374 24.7949 19.4097 24.9395 19.4097L25.4455 19.482C26.0238 19.5543 26.4576 19.6988 26.7467 19.988C27.0359 20.2049 27.2528 20.5663 27.2528 21C27.2528 21.2169 27.1805 21.5061 27.1082 21.6506C27.0359 21.8675 26.819 22.0121 26.6744 22.1567C26.4576 22.3013 26.2407 22.4458 25.9515 22.5181C25.6624 22.5904 25.3009 22.6627 24.9395 22.6627C24.7949 22.6627 24.6503 22.6627 24.5058 22.6627C24.3612 22.6627 24.1443 22.5904 23.9275 22.5904C23.7106 22.5181 23.4937 22.4458 23.3491 22.3735C23.1323 22.3013 22.9154 22.1567 22.7708 22.0121L23.2768 21.1446C23.3491 21.2169 23.4937 21.2892 23.566 21.3615C23.7106 21.4338 23.7829 21.5061 23.9275 21.5061C24.072 21.5784 24.2166 21.5784 24.3612 21.6506C24.5058 21.6506 24.7226 21.7229 24.9395 21.7229C25.3009 21.7229 25.5901 21.6506 25.807 21.5784C26.0238 21.4338 26.0961 21.2892 26.0961 21.1446C26.0961 21 26.0238 20.8555 25.8793 20.7832C25.7347 20.7109 25.5178 20.6386 25.2287 20.5663L24.7226 20.494C24.1443 20.4217 23.7106 20.2772 23.4214 19.988C23.1323 19.6988 22.9877 19.4097 22.9877 18.976C22.9877 18.6868 23.06 18.4699 23.1323 18.2531C23.2046 18.0362 23.3491 17.8916 23.566 17.747C23.7829 17.6025 23.9997 17.5302 24.2166 17.3856C24.5058 17.3133 24.7949 17.241 25.0841 17.241C25.5178 17.241 25.8793 17.3133 26.2407 17.3856C26.6021 17.4579 26.8913 17.6025 27.1805 17.8193L26.6021 18.7591ZM31.9516 18.4699H29.9997V20.7109C29.9997 20.8555 29.9997 21 30.072 21.1446C30.1443 21.2892 30.1443 21.3615 30.2166 21.4338C30.2889 21.5061 30.3612 21.5784 30.5058 21.5784C30.5781 21.5784 30.7226 21.6506 30.7949 21.6506C30.9395 21.6506 31.1564 21.6506 31.3009 21.5784C31.5178 21.5061 31.6624 21.4338 31.807 21.3615L32.2407 22.229C32.0238 22.3735 31.807 22.5181 31.5178 22.5904C31.2287 22.6627 30.9395 22.735 30.6503 22.735C30.072 22.735 29.6383 22.5904 29.2768 22.229C28.9154 21.8675 28.7708 21.3615 28.7708 20.7109V18.3976H27.7588V17.3856H28.7708V15.7952H29.9275V17.3856H31.8793V18.4699H31.9516ZM35.4214 17.3133C35.7829 17.3133 36.1443 17.3856 36.4335 17.5302C36.7226 17.6747 37.0118 17.8193 37.2287 18.1085C37.4455 18.3253 37.5901 18.6145 37.7347 18.976C37.8793 19.3374 37.9515 19.6988 37.9515 20.0603C37.9515 20.1326 37.9515 20.2049 37.9515 20.2772C37.9515 20.3494 37.9515 20.4217 37.9515 20.494H34.1202C34.1202 20.7109 34.1925 20.9278 34.3371 21.0723C34.4094 21.2169 34.554 21.3615 34.6985 21.5061C34.8431 21.5784 34.9877 21.7229 35.1323 21.7229C35.2768 21.7952 35.4937 21.7952 35.6383 21.7952C35.9275 21.7952 36.1443 21.7229 36.4335 21.6506C36.7226 21.5784 36.9395 21.4338 37.1564 21.2169L37.7347 22.0121C37.4455 22.3013 37.0841 22.4458 36.7226 22.5904C36.3612 22.6627 35.9997 22.735 35.566 22.735C35.2046 22.735 34.8431 22.6627 34.4817 22.5181C34.1925 22.3735 33.9034 22.229 33.6142 21.9398C33.3973 21.7229 33.1805 21.4338 33.0359 21.0723C32.8913 20.7109 32.819 20.3494 32.819 19.988C32.819 19.5543 32.8913 19.1928 33.0359 18.9037C33.1805 18.5422 33.325 18.2531 33.5419 18.0362C33.7588 17.8193 34.0479 17.6025 34.3371 17.4579C34.6985 17.3856 35.06 17.3133 35.4214 17.3133ZM35.4214 18.3253C35.2046 18.3253 35.06 18.3253 34.9154 18.3976C34.7708 18.4699 34.6262 18.5422 34.4817 18.6868C34.3371 18.8314 34.2648 18.9037 34.1925 19.1205C34.1202 19.2651 34.0479 19.482 34.0479 19.6266H36.7226C36.6503 19.1928 36.5058 18.9037 36.2889 18.6868C36.072 18.3976 35.7829 18.3253 35.4214 18.3253ZM41.7829 17.3133C41.9275 17.3133 42.1443 17.3133 42.2166 17.3133C42.3612 17.3133 42.5058 17.3856 42.6503 17.4579L42.3612 18.5422C42.2166 18.4699 42.072 18.4699 41.9275 18.3976C41.7829 18.3976 41.6383 18.3253 41.4937 18.3253C41.3491 18.3253 41.1323 18.3253 40.9877 18.3976C40.8431 18.4699 40.6985 18.5422 40.6263 18.6868C40.554 18.8314 40.4094 18.976 40.3371 19.1205C40.2648 19.2651 40.2648 19.482 40.2648 19.6988V22.5181H39.1082V17.3133H40.1925V17.8916C40.3371 17.6747 40.554 17.4579 40.8431 17.3133C41.2046 17.3856 41.4937 17.3133 41.7829 17.3133ZM45.6865 17.3133C46.0479 17.3133 46.4094 17.3856 46.7708 17.5302C47.1323 17.6747 47.4214 17.8916 47.6383 18.1808L46.9154 18.976C46.6985 18.8314 46.554 18.6868 46.3371 18.5422C46.1202 18.4699 45.9034 18.3976 45.6865 18.3976C45.4696 18.3976 45.2528 18.4699 45.1082 18.5422C44.8913 18.6145 44.7467 18.7591 44.6022 18.9037C44.4576 19.0482 44.3853 19.1928 44.313 19.4097C44.2407 19.6266 44.1684 19.8434 44.1684 20.0603C44.1684 20.2772 44.2407 20.494 44.313 20.7109C44.3853 20.9278 44.5299 21.0723 44.6022 21.2169C44.7467 21.3615 44.8913 21.5061 45.1082 21.5784C45.325 21.6506 45.4696 21.7229 45.6865 21.7229C45.9034 21.7229 46.1925 21.6506 46.4094 21.5784C46.6263 21.5061 46.8431 21.3615 46.9877 21.2169L47.7106 22.0121C47.4937 22.3013 47.2046 22.5181 46.8431 22.6627C46.4817 22.8073 46.1202 22.8796 45.7588 22.8796C45.325 22.8796 44.9636 22.8073 44.6744 22.6627C44.313 22.5181 44.0238 22.3013 43.807 22.0844C43.5901 21.8675 43.3732 21.5784 43.2287 21.2169C43.0841 20.8555 43.0118 20.494 43.0118 20.1326C43.0118 19.7711 43.0841 19.4097 43.2287 19.0482C43.3732 18.6868 43.5178 18.3976 43.807 18.1808C44.0238 17.9639 44.313 17.747 44.6744 17.6025C44.8913 17.3856 45.2528 17.3133 45.6865 17.3133ZM53.6383 22.6627H52.4817V22.0121C52.3371 22.229 52.0479 22.4458 51.8311 22.5904C51.5419 22.735 51.2528 22.8073 50.8913 22.8073C50.5299 22.8073 50.1684 22.735 49.8793 22.5904C49.5901 22.4458 49.3009 22.3013 49.0841 22.0121C48.8672 21.7952 48.6503 21.5061 48.5058 21.1446C48.3612 20.7832 48.2889 20.4217 48.2889 20.0603C48.2889 19.6988 48.3612 19.2651 48.5058 18.976C48.6503 18.6145 48.7949 18.3253 49.0841 18.1085C49.3009 17.8916 49.5901 17.6747 49.8793 17.5302C50.1684 17.3856 50.5299 17.3133 50.8913 17.3133C51.2528 17.3133 51.6142 17.3856 51.8311 17.5302C52.1202 17.6747 52.3371 17.8193 52.4817 18.1085V17.4579H53.6383V22.6627ZM51.0359 18.3976C50.819 18.3976 50.6022 18.4699 50.3853 18.5422C50.1684 18.6145 50.0238 18.7591 49.8793 18.9037C49.7347 19.0482 49.6624 19.1928 49.5901 19.4097C49.5178 19.6266 49.5178 19.8434 49.5178 20.0603C49.5178 20.2772 49.5901 20.494 49.5901 20.7109C49.6624 20.9278 49.7347 21.0723 49.8793 21.2169C50.0238 21.3615 50.1684 21.5061 50.3853 21.5784C50.6022 21.6506 50.819 21.7229 51.0359 21.7229C51.2528 21.7229 51.4696 21.6506 51.6865 21.5784C51.9034 21.5061 52.0479 21.3615 52.1925 21.2169C52.3371 21.0723 52.4094 20.9278 52.4817 20.7109C52.554 20.494 52.6262 20.2772 52.6262 20.0603C52.6262 19.8434 52.554 19.6266 52.4817 19.4097C52.4094 19.1928 52.2648 19.0482 52.1925 18.9037C52.0479 18.7591 51.9034 18.6145 51.6865 18.5422C51.4696 18.3976 51.2528 18.3976 51.0359 18.3976ZM57.9034 17.3133C58.0479 17.3133 58.2648 17.3133 58.3371 17.3133C58.4817 17.3133 58.6262 17.3856 58.7708 17.4579L58.4817 18.5422C58.3371 18.4699 58.1925 18.4699 58.0479 18.3976C57.9034 18.3976 57.7588 18.3253 57.6142 18.3253C57.4696 18.3253 57.2528 18.3253 57.1082 18.3976C56.9636 18.4699 56.819 18.5422 56.7467 18.6868C56.6744 18.8314 56.5299 18.976 56.4576 19.1205C56.3853 19.2651 56.3853 19.482 56.3853 19.6988V22.5181H55.2287V17.3133H56.313V17.8916C56.4576 17.6747 56.6744 17.4579 56.9636 17.3133C57.325 17.3856 57.6142 17.3133 57.9034 17.3133ZM61.6624 17.3133C62.0238 17.3133 62.3853 17.3856 62.6022 17.5302C62.8913 17.6747 63.1082 17.8193 63.2528 18.1085V14.8555H64.4094V22.6627H63.2528V22.0121C63.1082 22.229 62.819 22.4458 62.6022 22.5904C62.313 22.735 62.0238 22.8073 61.6624 22.8073C61.3009 22.8073 60.9395 22.735 60.6503 22.5904C60.3612 22.4458 60.072 22.3013 59.8552 22.0121C59.6383 21.7952 59.4214 21.5061 59.2768 21.1446C59.1323 20.7832 59.06 20.4217 59.06 20.0603C59.06 19.6988 59.1323 19.2651 59.2768 18.976C59.4214 18.6145 59.566 18.3253 59.8552 18.1085C60.072 17.8916 60.3612 17.6747 60.6503 17.5302C60.9395 17.3856 61.3009 17.3133 61.6624 17.3133ZM65.7106 22.1567C65.7829 22.1567 65.7829 22.1567 65.8552 22.1567C65.9275 22.1567 65.9275 22.229 65.9275 22.229L65.9997 22.3013C65.9997 22.3735 65.9997 22.3735 65.9997 22.4458C65.9997 22.5181 65.9997 22.5181 65.9997 22.5904C65.9997 22.6627 65.9275 22.6627 65.9275 22.6627L65.8552 22.735C65.7829 22.735 65.7829 22.735 65.7106 22.735C65.6383 22.735 65.6383 22.735 65.566 22.735C65.4937 22.735 65.4937 22.6627 65.4937 22.6627L65.4214 22.5904C65.4214 22.5181 65.4214 22.5181 65.4214 22.4458C65.4214 22.3735 65.4214 22.3735 65.4214 22.3013C65.4214 22.229 65.4937 22.229 65.4937 22.229L65.566 22.1567C65.6383 22.1567 65.6383 22.1567 65.7106 22.1567ZM65.7106 22.735H65.7829C65.7829 22.735 65.8552 22.735 65.8552 22.6627L65.9275 22.5904V22.5181V22.4458C65.9275 22.4458 65.9275 22.3735 65.8552 22.3735L65.7829 22.3013H65.7106H65.6383C65.6383 22.3013 65.566 22.3013 65.566 22.3735L65.4937 22.4458V22.5181V22.5904C65.4937 22.5904 65.4937 22.6627 65.566 22.6627L65.6383 22.735H65.7106ZM65.7106 22.3013C65.7829 22.3013 65.7829 22.3013 65.7829 22.3013V22.3735V22.4458H65.7106L65.7829 22.5904H65.7106L65.6383 22.4458V22.5904H65.566V22.3013H65.7106ZM65.6383 22.3735V22.4458H65.7106C65.7106 22.4458 65.7106 22.4458 65.7829 22.4458C65.7829 22.4458 65.7829 22.4458 65.7106 22.4458H65.6383V22.3735ZM61.807 18.3976C61.5901 18.3976 61.3732 18.4699 61.1564 18.5422C60.9395 18.6145 60.7949 18.7591 60.6503 18.9037C60.5058 19.0482 60.4335 19.1928 60.3612 19.4097C60.2166 19.6266 60.2166 19.8434 60.2166 20.0603C60.2166 20.2772 60.2889 20.494 60.2889 20.7109C60.3612 20.9278 60.4335 21.0723 60.5781 21.2169C60.7226 21.3615 60.8672 21.5061 61.0841 21.5784C61.3009 21.6506 61.5178 21.7229 61.7347 21.7229C61.9515 21.7229 62.1684 21.6506 62.3853 21.5784C62.6022 21.5061 62.7467 21.3615 62.8913 21.2169C63.0359 21.0723 63.1082 20.9278 63.1805 20.7109C63.2528 20.494 63.325 20.2772 63.325 20.0603C63.325 19.8434 63.2528 19.6266 63.1805 19.4097C63.1082 19.1928 62.9636 19.0482 62.8913 18.9037C62.7467 18.7591 62.6022 18.6145 62.3853 18.5422C62.2407 18.3976 62.0238 18.3976 61.807 18.3976Z" fill="#E41522"/>
</g>
<defs>
<clipPath id="clip0_237_379">
<rect width="72" height="48" fill="white"/>
</clipPath>
</defs>
</svg>
