<svg width="72" height="48" viewBox="0 0 72 48" fill="none" xmlns="http://www.w3.org/2000/svg">
<g clip-path="url(#clip0_237_380)">
<path d="M0 6C0 2.68629 2.68629 0 6 0H66C69.3137 0 72 2.68629 72 6V42C72 45.3137 69.3137 48 66 48H6C2.68629 48 0 45.3137 0 42V6Z" fill="white"/>
<path d="M59.8317 15.3086H48.2803C48.9532 19.1217 52.6541 22.7105 56.6915 22.7105H65.8878C65.9999 22.374 65.9999 21.8133 65.9999 21.4768C65.9999 18.1123 63.1961 15.3086 59.8317 15.3086Z" fill="url(#paint0_linear_237_380)"/>
<path d="M49.29 23.3838V32.6922H54.8975V27.7576H59.8321C62.5237 27.7576 64.8788 25.8511 65.6639 23.3838H49.29Z" fill="#4FAD50"/>
<path d="M29.5518 15.3086V32.5796H34.4864C34.4864 32.5796 35.72 32.5796 36.3929 31.346C39.7574 24.7292 40.7667 22.7105 40.7667 22.7105H41.4396V32.5796H47.0471V15.3086H42.1125C42.1125 15.3086 40.8789 15.4208 40.206 16.5422C37.4022 22.2619 35.8321 25.1778 35.8321 25.1778H35.1592V15.3086H29.5518Z" fill="#4FAD50"/>
<path d="M6 32.6919V15.4209H11.6075C11.6075 15.4209 13.1776 15.4209 14.0748 17.8882C16.3178 24.3929 16.5421 25.2901 16.5421 25.2901C16.5421 25.2901 16.9907 23.72 19.0094 17.8882C19.9065 15.4209 21.4767 15.4209 21.4767 15.4209H27.0841V32.6919H21.4767V23.3835H20.8038L17.6636 32.6919H15.1963L12.0561 23.3835H11.3832V32.6919H6Z" fill="#4FAD50"/>
</g>
<defs>
<linearGradient id="paint0_linear_237_380" x1="48.2603" y1="19.0626" x2="65.9602" y2="19.0626" gradientUnits="userSpaceOnUse">
<stop stop-color="#27B1E6"/>
<stop offset="1" stop-color="#148ACA"/>
</linearGradient>
<clipPath id="clip0_237_380">
<rect width="72" height="48" fill="white"/>
</clipPath>
</defs>
</svg>
