<svg width="72" height="48" viewBox="0 0 72 48" fill="none" xmlns="http://www.w3.org/2000/svg">
<g clip-path="url(#clip0_237_381)">
<path d="M0 6C0 2.68629 2.68629 0 6 0H66C69.3137 0 72 2.68629 72 6V42C72 45.3137 69.3137 48 66 48H6C2.68629 48 0 45.3137 0 42V6Z" fill="white"/>
<path d="M32.792 27.1317L34.3881 16.9268H36.8962L35.3001 27.1317H32.792Z" fill="#074784"/>
<path d="M25.381 16.9268H29.3712C31.8794 16.9268 32.5634 18.4343 32.2214 20.1738C31.9934 21.6813 30.9673 22.609 29.5993 22.9569L32.1074 27.1317H28.8012L26.8631 23.0729L26.2931 27.1317H23.6709L25.381 16.9268ZM27.6611 18.8982L27.2051 21.4494H28.0032C28.6872 21.4494 29.3712 20.8696 29.4852 20.1738C29.5993 19.478 29.1432 18.8982 28.3452 18.8982H27.6611Z" fill="#074784"/>
<path d="M44.5342 27.1317L46.1303 16.9268H48.7524L47.1563 27.1317H44.5342Z" fill="#074784"/>
<path d="M52.971 19.1301L52.6289 20.8696H55.5931L55.2511 23.0729H52.2869L52.0589 24.9283H55.1371L54.7951 27.1317H49.0947L50.6908 16.9268H56.3912L56.0491 19.1301H52.971Z" fill="#074784"/>
<path d="M20.3645 19.1301L20.1365 20.8696H23.1007L22.7587 23.0729H19.7945L19.4525 24.9283H22.5306L22.1886 27.1317H16.4883L18.0844 16.9268H23.7847L23.4427 19.1301H20.3645Z" fill="#074784"/>
<path d="M41.1145 19.1301L40.8865 20.8696H43.7367L43.3946 23.0729H40.5445L39.8604 27.1317H37.2383L38.8344 16.9268H44.6487L44.3067 19.1301H41.1145Z" fill="#074784"/>
<path d="M61.2936 16.9268H57.8734L56.2773 27.1317H59.6975C62.8897 27.1317 65.5119 24.9283 65.9679 22.0292C66.1959 20.0578 65.2839 16.9268 61.2936 16.9268ZM63.2318 21.9133C62.8897 23.7687 61.6357 24.9283 59.9256 24.9283C59.6975 24.9283 59.4695 24.9283 59.2415 24.9283L60.1536 19.1301C60.3816 19.1301 60.4956 19.1301 60.7236 19.1301C62.6617 19.1301 63.4598 20.5217 63.2318 21.9133Z" fill="#074784"/>
<path d="M6 15.535H10.7883L11.3583 22.9568C14.5505 17.3905 17.7427 12.0561 21.0489 6.72168H22.645C19.2248 13.4477 15.8046 20.2896 12.4984 27.1315H8.96418L8.05212 18.898C7.82411 16.9266 7.48209 15.9989 6 15.8829V15.535Z" fill="#074784"/>
<path d="M12.4985 17.7387L16.2607 11.2446V11.0127H7.82422V11.2446L11.9285 13.1001L12.2705 17.7387H12.4985Z" fill="#F09C11"/>
<path d="M27.4333 32.8134C26.7493 32.8134 26.1793 33.1613 25.7232 33.6252L26.2933 29.5664H24.5832L23.3291 38.4957H25.0392L25.1532 37.7999C25.4952 38.2638 25.9513 38.6117 26.6353 38.6117C28.0034 38.6117 29.2575 37.3361 29.4855 35.7126C29.7135 34.089 28.8014 32.8134 27.4333 32.8134ZM27.6614 35.7126C27.5474 36.4083 26.9773 36.9882 26.4073 36.9882C25.8372 36.9882 25.3812 36.4083 25.4952 35.7126C25.6092 35.0168 26.1793 34.4369 26.7493 34.4369C27.3193 34.4369 27.7754 35.0168 27.6614 35.7126Z" fill="#074784"/>
<path d="M34.2739 32.9297H36.212L31.0817 41.2792H29.1436L31.3097 37.8002L29.5996 32.9297H31.5377L32.4498 35.8288L34.2739 32.9297Z" fill="#074784"/>
<path d="M47.7262 38.4957H45.332L48.0682 29.5664H50.4623L47.7262 38.4957Z" fill="#074784"/>
<path d="M44.3067 29.5664L41.1145 35.3647L40.8865 29.5664H36.7822V29.9143C38.1503 29.9143 38.3783 30.1462 38.6063 31.1899L39.4044 38.4957H41.9125L46.9288 29.5664H44.3067Z" fill="#074784"/>
<path d="M59.9256 37.2201L59.3556 38.4957H56.7334L61.5217 29.5664H64.7139L65.5119 38.4957H63.6878H62.8898L62.7758 37.2201H59.9256ZM60.7236 35.4806H62.7758L62.5477 31.3059L60.7236 35.4806Z" fill="#074784"/>
<path d="M52.9705 38.7281C51.2604 38.7281 50.1203 38.1483 49.3223 37.6844L50.4623 35.945C51.1464 36.4088 51.7164 36.8727 53.0845 36.8727C53.5405 36.8727 53.8825 36.7567 54.1105 36.4088C54.4526 35.829 53.9965 35.4811 53.0845 35.0172L52.6285 34.5534C51.2604 33.6257 50.5763 32.6979 51.2604 31.0744C51.7164 30.0308 52.7425 29.335 54.5666 29.335C55.8206 29.335 56.9607 29.9148 57.6448 30.3786L56.2767 31.8862C55.5926 31.3064 55.0226 31.0744 54.4526 31.0744C53.9965 31.0744 53.5405 31.3064 53.4265 31.5383C53.1985 32.0022 53.5405 32.3501 54.2246 32.8139L54.7946 33.1618C56.5047 34.2055 56.8467 35.3651 56.5047 36.4088C55.9347 38.3802 54.4526 38.7281 52.9705 38.7281Z" fill="#074784"/>
</g>
<defs>
<clipPath id="clip0_237_381">
<rect width="72" height="48" fill="white"/>
</clipPath>
</defs>
</svg>
