<svg width="39" height="40" viewBox="0 0 39 40" fill="none" xmlns="http://www.w3.org/2000/svg">
<path d="M13.6172 20.3016L17.5334 24.2341L25.3822 16.3691" stroke="#F1F4F9" stroke-width="2" stroke-linecap="round" stroke-linejoin="round"/>
<path d="M17.4684 4.78254C18.5897 3.82379 20.4259 3.82379 21.5634 4.78254L24.1309 6.99254C24.6184 7.41504 25.5284 7.75629 26.1784 7.75629H28.9409C30.6634 7.75629 32.0772 9.17004 32.0772 10.8925V13.655C32.0772 14.2888 32.4184 15.215 32.8409 15.7025L35.0509 18.27C36.0097 19.3913 36.0097 21.2275 35.0509 22.365L32.8409 24.9325C32.4184 25.42 32.0772 26.33 32.0772 26.98V29.7425C32.0772 31.465 30.6634 32.8788 28.9409 32.8788H26.1784C25.5447 32.8788 24.6184 33.22 24.1309 33.6425L21.5634 35.8525C20.4422 36.8113 18.6059 36.8113 17.4684 35.8525L14.9009 33.6425C14.4134 33.22 13.5034 32.8788 12.8534 32.8788H10.0422C8.31969 32.8788 6.90594 31.465 6.90594 29.7425V26.9638C6.90594 26.33 6.56469 25.42 6.15844 24.9325L3.96469 22.3488C3.02219 21.2275 3.02219 19.4075 3.96469 18.2863L6.15844 15.7025C6.56469 15.215 6.90594 14.305 6.90594 13.6713V10.8763C6.90594 9.15379 8.31969 7.74004 10.0422 7.74004H12.8534C13.4872 7.74004 14.4134 7.39879 14.9009 6.97629L17.4684 4.78254Z" stroke="#F1F4F9" stroke-width="2" stroke-linecap="round" stroke-linejoin="round"/>
</svg>
