<svg width="65" height="66" viewBox="0 0 65 66" fill="none" xmlns="http://www.w3.org/2000/svg">
<circle cx="32.5" cy="33" r="32.5" fill="#1C88A4"/>
<path d="M28.4999 47.5H37.4998M32.9998 19.5C28.0294 19.5 24 23.6787 24 28.8333C24 30.7226 24.5413 32.4807 25.4717 33.95C26.9026 36.2095 27.6173 37.3385 27.7102 37.5073C28.5363 39.0083 28.3842 38.4788 28.4882 40.2038C28.4999 40.3977 28.4999 40.6912 28.4999 41.2778C28.4999 42.1369 29.1715 42.8333 29.9999 42.8333L35.9998 42.8333C36.8282 42.8333 37.4998 42.1369 37.4998 41.2778C37.4998 40.6912 37.4998 40.3977 37.5115 40.2038C37.6154 38.4788 37.4624 39.0083 38.2886 37.5073C38.3814 37.3385 39.0974 36.2095 40.5283 33.95C41.4587 32.4807 42 30.7226 42 28.8333C42 23.6787 37.9703 19.5 32.9998 19.5Z" stroke="white" stroke-width="2" stroke-linecap="round" stroke-linejoin="round"/>
</svg>
