<svg width="65" height="66" viewBox="0 0 65 66" fill="none" xmlns="http://www.w3.org/2000/svg">
<circle cx="32.5" cy="33" r="32.5" fill="#1C88A4"/>
<path d="M19 36.8337V39.5933C19 41.3108 19 42.169 19.3391 42.825C19.6374 43.402 20.1129 43.8721 20.6983 44.1661C21.3632 44.5 22.234 44.5 23.9729 44.5H47M19 36.8337V21.5M19 36.8337L24.9941 31.9099L24.9991 31.906C26.0834 31.0153 26.6266 30.569 27.2156 30.3878C27.9115 30.1737 28.661 30.2075 29.3343 30.4829C29.9051 30.7163 30.4056 31.2096 31.4066 32.1964L31.4166 32.2063C32.4332 33.2083 32.9428 33.7106 33.5228 33.9435C34.2091 34.2191 34.9731 34.2429 35.6765 34.0129C36.2728 33.8179 36.8175 33.3489 37.9065 32.4096L46.9997 24.5667" stroke="white" stroke-width="2" stroke-linecap="round" stroke-linejoin="round"/>
</svg>
