<svg width="65" height="66" viewBox="0 0 65 66" fill="none" xmlns="http://www.w3.org/2000/svg">
<circle cx="32.5" cy="33" r="32.5" fill="#1C88A4"/>
<path fill-rule="evenodd" clip-rule="evenodd" d="M18.3437 33.2969C18.3437 25.3146 24.8146 18.8437 32.7969 18.8437C40.7791 18.8437 47.25 25.3146 47.25 33.2969C47.25 41.2791 40.7791 47.75 32.7969 47.75C24.8146 47.75 18.3437 41.2791 18.3437 33.2969ZM32.7969 16.5C23.5202 16.5 16 24.0202 16 33.2969C16 42.5735 23.5202 50.0937 32.7969 50.0937C42.0735 50.0937 49.5937 42.5735 49.5937 33.2969C49.5937 24.0202 42.0735 16.5 32.7969 16.5ZM32.7969 22.75C33.4441 22.75 33.9687 23.2747 33.9687 23.9219V24.8435H34.5498C37.1719 24.8435 39.1904 27.0475 39.1904 29.656C39.1904 30.3032 38.6658 30.8279 38.0185 30.8279C37.3713 30.8279 36.8467 30.3032 36.8467 29.656C36.8467 28.2332 35.7714 27.1873 34.5498 27.1873H33.9687V32.4594L36.3475 33.2858C37.0493 33.5345 37.8104 33.9074 38.3725 34.6244C38.9454 35.3554 39.1904 36.2852 39.1904 37.406C39.1904 39.7527 37.3558 41.7497 34.9873 41.7497H33.9687V42.6719C33.9687 43.3191 33.4441 43.8437 32.7969 43.8437C32.1497 43.8437 31.625 43.3191 31.625 42.6719V41.7497H31.0654C28.4433 41.7497 26.4248 39.5457 26.4248 36.9372C26.4248 36.29 26.9495 35.7654 27.5967 35.7654C28.2439 35.7654 28.7685 36.29 28.7685 36.9372C28.7685 38.36 29.8438 39.406 31.0654 39.406H31.625V34.1264L29.2677 33.3074C28.5659 33.0587 27.8049 32.6859 27.2428 31.9688C26.6698 31.2379 26.4248 30.3081 26.4248 29.1872C26.4248 26.8406 28.2595 24.8435 30.6279 24.8435H31.625V23.9219C31.625 23.2747 32.1497 22.75 32.7969 22.75ZM30.6279 27.1873H31.625V31.6452L30.0474 31.0972C29.5169 30.9088 29.2475 30.7272 29.0873 30.5229C28.9376 30.3319 28.7685 29.9727 28.7685 29.1872C28.7685 28.0339 29.6526 27.1873 30.6279 27.1873ZM33.9687 39.406V34.9406L35.5679 35.4961C36.0983 35.6844 36.3677 35.866 36.5279 36.0704C36.6776 36.2613 36.8467 36.6206 36.8467 37.406C36.8467 38.5593 35.9626 39.406 34.9873 39.406H33.9687Z" fill="white"/>
</svg>
