<svg width="65" height="66" viewBox="0 0 65 66" fill="none" xmlns="http://www.w3.org/2000/svg">
<circle cx="32.5" cy="33" r="32.5" fill="#1C88A4"/>
<path d="M19 33.5H26.7778M19 33.5C19 41.232 25.268 47.5 33 47.5M19 33.5C19 25.768 25.268 19.5 33 19.5M26.7778 33.5H39.2222M26.7778 33.5C26.7778 41.232 29.5636 47.5 33 47.5M26.7778 33.5C26.7778 25.768 29.5636 19.5 33 19.5M39.2222 33.5H47M39.2222 33.5C39.2222 25.768 36.4364 19.5 33 19.5M39.2222 33.5C39.2222 41.232 36.4364 47.5 33 47.5M47 33.5C47 25.768 40.732 19.5 33 19.5M47 33.5C47 41.232 40.732 47.5 33 47.5" stroke="white" stroke-width="2" stroke-linecap="round" stroke-linejoin="round"/>
</svg>
