<svg width="65" height="66" viewBox="0 0 65 66" fill="none" xmlns="http://www.w3.org/2000/svg">
<circle cx="32.5" cy="33" r="32.5" fill="#1C88A4"/>
<path fill-rule="evenodd" clip-rule="evenodd" d="M25.3453 19.9422C21.2761 20.8863 18.2502 24.5293 18.2502 28.8888C18.2502 29.4975 17.7567 29.9909 17.148 29.9909C16.5393 29.9909 16.0459 29.4975 16.0459 28.8888C16.0459 22.593 21.1389 17.5 27.4347 17.5C27.8317 17.5 28.1981 17.7136 28.3938 18.0591C28.5894 18.4046 28.584 18.8287 28.3798 19.1692L26.8368 21.7408C26.5236 22.2628 25.8466 22.432 25.3247 22.1189C24.8027 21.8057 24.6334 21.1287 24.9466 20.6068L25.3453 19.9422ZM18.5747 36.9305C18.4398 37.0643 18.2502 37.4331 18.2502 38.7346V39.6311H30.7411V38.7346C30.7411 37.4331 30.5515 37.0643 30.4166 36.9305C30.2787 36.7936 29.8988 36.6038 28.5809 36.6038H20.4103C19.0925 36.6038 18.7126 36.7936 18.5747 36.9305ZM16.0459 38.7346V40.7332V44.7743C16.0459 46.0592 16.1796 47.3069 17.0219 48.1429C17.8612 48.9759 19.1124 49.1094 20.4103 49.1094H28.5809C29.8788 49.1094 31.1301 48.9759 31.9694 48.1429C32.8117 47.3069 32.9454 46.0592 32.9454 44.7743V40.7332V38.7346C32.9454 37.4497 32.8117 36.202 31.9694 35.366C31.1301 34.5329 29.8788 34.3995 28.5809 34.3995H20.4103C19.1124 34.3995 17.8612 34.5329 17.0219 35.366C16.1796 36.202 16.0459 37.4497 16.0459 38.7346ZM30.7411 44.7743V41.8354H18.2502V44.7743C18.2502 46.0758 18.4398 46.4445 18.5747 46.5784C18.7126 46.7153 19.0925 46.9051 20.4103 46.9051H28.5809C29.8988 46.9051 30.2787 46.7153 30.4166 46.5784C30.5515 46.4445 30.7411 46.0758 30.7411 44.7743ZM47.6406 37.7059C47.6406 37.0972 47.1471 36.6038 46.5384 36.6038C45.9297 36.6038 45.4363 37.0972 45.4363 37.7059C45.4363 42.0653 42.4104 45.7084 38.3412 46.6524L38.7399 45.9879C39.053 45.466 38.8838 44.789 38.3618 44.4758C37.8399 44.1626 37.1629 44.3319 36.8497 44.8538L35.3067 47.4255C35.1024 47.766 35.0971 48.19 35.2927 48.5356C35.4884 48.8811 35.8547 49.0947 36.2518 49.0947C42.5475 49.0947 47.6406 44.0016 47.6406 37.7059ZM35.8844 25.215C35.8844 22.1715 38.3516 19.7043 41.3951 19.7043C44.4386 19.7043 46.9058 22.1715 46.9058 25.215C46.9058 28.2584 44.4386 30.7257 41.3951 30.7257C38.3516 30.7257 35.8844 28.2584 35.8844 25.215ZM41.3951 17.5C37.1342 17.5 33.6801 20.9541 33.6801 25.215C33.6801 29.4758 37.1342 32.93 41.3951 32.93C45.656 32.93 49.1101 29.4758 49.1101 25.215C49.1101 20.9541 45.656 17.5 41.3951 17.5Z" fill="white"/>
</svg>
