<svg width="65" height="66" viewBox="0 0 65 66" fill="none" xmlns="http://www.w3.org/2000/svg">
<circle cx="32.5" cy="33" r="32.5" fill="#1C88A4"/>
<path d="M40.7778 44.5C40.7778 41.9595 37.2955 39.9 33 39.9C28.7045 39.9 25.2222 41.9595 25.2222 44.5M47 39.9006C47 38.0143 45.0803 36.3932 42.3333 35.6833M19 39.9006C19 38.0143 20.9197 36.3932 23.6667 35.6833M42.3333 29.5287C43.2881 28.6864 43.8889 27.4624 43.8889 26.1C43.8889 23.5595 41.7996 21.5 39.2222 21.5C38.027 21.5 36.9367 21.9429 36.1111 22.6713M23.6667 29.5287C22.7119 28.6864 22.1111 27.4624 22.1111 26.1C22.1111 23.5595 24.2004 21.5 26.7778 21.5C27.973 21.5 29.0633 21.9429 29.8889 22.6713M33 35.3C30.4227 35.3 28.3333 33.2405 28.3333 30.7C28.3333 28.1595 30.4227 26.1 33 26.1C35.5773 26.1 37.6667 28.1595 37.6667 30.7C37.6667 33.2405 35.5773 35.3 33 35.3Z" stroke="white" stroke-width="2" stroke-linecap="round" stroke-linejoin="round"/>
</svg>
