<svg width="65" height="66" viewBox="0 0 65 66" fill="none" xmlns="http://www.w3.org/2000/svg">
<circle cx="32.5" cy="33" r="32.5" fill="#1C88A4"/>
<path d="M37.1875 30.9134L30.9375 37.1891L27.8125 34.0513M45 32.7413C45 43.0463 37.2374 47.6663 33.9465 49.162L33.9424 49.1638C33.5963 49.3211 33.4228 49.4 33.0295 49.4678C32.7804 49.5107 32.2212 49.5107 31.9721 49.4678C31.5772 49.3997 31.4019 49.3206 31.053 49.162C27.7622 47.6664 20 43.0463 20 32.7413V26.5208C20 24.7635 20 23.8841 20.3406 23.2129C20.6402 22.6225 21.1179 22.1428 21.7059 21.842C22.3744 21.5 23.2501 21.5 25.0003 21.5H40.0003C41.7505 21.5 42.6243 21.5 43.2928 21.842C43.8808 22.1428 44.3601 22.6225 44.6597 23.2129C45 23.8835 45 24.7618 45 26.5157V32.7413Z" stroke="white" stroke-width="2" stroke-linecap="round" stroke-linejoin="round"/>
</svg>
