<svg width="36" height="37" viewBox="0 0 36 37" fill="none" xmlns="http://www.w3.org/2000/svg">
<path d="M18 18.8018C22.1421 18.8018 25.5 15.4439 25.5 11.3018C25.5 7.15962 22.1421 3.80176 18 3.80176C13.8579 3.80176 10.5 7.15962 10.5 11.3018C10.5 15.4439 13.8579 18.8018 18 18.8018Z" stroke="#6AC965" stroke-width="2" stroke-linecap="round" stroke-linejoin="round"/>
<path d="M5.11523 33.8018C5.11523 27.9968 10.8902 23.3018 18.0002 23.3018C19.4402 23.3018 20.8352 23.4968 22.1402 23.8568" stroke="#6AC965" stroke-width="2" stroke-linecap="round" stroke-linejoin="round"/>
<path d="M33 27.8018C33 28.9268 32.685 29.9918 32.13 30.8918C31.815 31.4318 31.41 31.9118 30.945 32.3018C29.895 33.2468 28.515 33.8018 27 33.8018C24.81 33.8018 22.905 32.6318 21.87 30.8918C21.315 29.9918 21 28.9268 21 27.8018C21 25.9118 21.87 24.2168 23.25 23.1218C24.285 22.2968 25.59 21.8018 27 21.8018C30.315 21.8018 33 24.4868 33 27.8018Z" stroke="#6AC965" stroke-width="2" stroke-miterlimit="10" stroke-linecap="round" stroke-linejoin="round"/>
<path d="M24.6602 27.801L26.1451 29.286L29.3401 26.3311" stroke="#6AC965" stroke-width="2" stroke-linecap="round" stroke-linejoin="round"/>
</svg>
