<svg width="39" height="40" viewBox="0 0 39 40" fill="none" xmlns="http://www.w3.org/2000/svg">
<path d="M15.4375 23.1461C15.4375 24.7224 16.6563 25.9899 18.1513 25.9899H21.2062C22.5062 25.9899 23.5625 24.8849 23.5625 23.5036C23.5625 22.0249 22.9125 21.4886 21.9538 21.1474L17.0625 19.4411C16.1038 19.0999 15.4538 18.5799 15.4538 17.0849C15.4538 15.7199 16.51 14.5986 17.81 14.5986H20.865C22.36 14.5986 23.5788 15.8661 23.5788 17.4424" stroke="#6AC965" stroke-width="2" stroke-linecap="round" stroke-linejoin="round"/>
<path d="M19.5 12.9893V27.6143" stroke="#6AC965" stroke-width="2" stroke-linecap="round" stroke-linejoin="round"/>
<path d="M35.75 20.3018C35.75 29.2718 28.47 36.5518 19.5 36.5518C10.53 36.5518 3.25 29.2718 3.25 20.3018C3.25 11.3318 10.53 4.05176 19.5 4.05176" stroke="#6AC965" stroke-width="2" stroke-linecap="round" stroke-linejoin="round"/>
<path d="M37.375 8.92676C37.375 10.1455 37.0338 11.2993 36.4325 12.2743C36.0913 12.8593 35.6525 13.3793 35.1488 13.8018C34.0113 14.8255 32.5162 15.4268 30.875 15.4268C28.5025 15.4268 26.4387 14.1593 25.3175 12.2743C24.7162 11.2993 24.375 10.1455 24.375 8.92676C24.375 6.87926 25.3175 5.04302 26.8125 3.85677C27.9337 2.96302 29.3475 2.42676 30.875 2.42676C34.4663 2.42676 37.375 5.33551 37.375 8.92676Z" stroke="#6AC965" stroke-width="2" stroke-miterlimit="10" stroke-linecap="round" stroke-linejoin="round"/>
<path d="M28.3408 8.92645L29.9496 10.5352L33.4108 7.33398" stroke="#6AC965" stroke-width="2" stroke-linecap="round" stroke-linejoin="round"/>
</svg>
