<svg width="26" height="27" viewBox="0 0 26 27" fill="none" xmlns="http://www.w3.org/2000/svg">
<path fill-rule="evenodd" clip-rule="evenodd" d="M14.4443 2.2462C14.4443 1.44846 13.7976 0.801758 12.9999 0.801758C12.2021 0.801758 11.5554 1.44846 11.5554 2.2462V12.3572H1.44444C0.6467 12.3572 0 13.0039 0 13.8016C0 14.5994 0.6467 15.2461 1.44444 15.2461H11.5554V25.3573C11.5554 26.1551 12.2021 26.8018 12.9999 26.8018C13.7976 26.8018 14.4443 26.1551 14.4443 25.3573V15.2461H24.5556C25.3533 15.2461 26 14.5994 26 13.8016C26 13.0039 25.3533 12.3572 24.5556 12.3572H14.4443V2.2462Z" fill="#A2A7B8"/>
</svg>
